<svg xmlns="http://www.w3.org/2000/svg" viewBox="0 0 64 64" role="img" aria-label="TrustedRouter">
  <defs>
    <linearGradient id="trustedrouter-mark" x1="8" y1="8" x2="56" y2="56" gradientUnits="userSpaceOnUse">
      <stop offset="0" stop-color="#2c6ecb"/>
      <stop offset="1" stop-color="#19a06d"/>
    </linearGradient>
    <filter id="shadow" x="-20%" y="-20%" width="140%" height="140%">
      <feDropShadow dx="0" dy="2" stdDeviation="2" flood-color="#010409" flood-opacity="0.24"/>
    </filter>
  </defs>
  <rect width="64" height="64" rx="15" fill="#0d1117"/>
  <rect x="7" y="7" width="50" height="50" rx="12" fill="url(#trustedrouter-mark)" filter="url(#shadow)"/>
  <path fill="#fff" d="M17 20h22v6h-8v20h-6V26h-8z"/>
  <path fill="#fff" fill-rule="evenodd" d="M37 20h8.5c5.1 0 8.5 3 8.5 7.5 0 3.1-1.7 5.4-4.4 6.5l5.4 12h-6.8l-4.6-10.9H43V46h-6zm6 10.2h2c1.8 0 3-1 3-2.6S46.9 25 45.1 25H43z" clip-rule="evenodd"/>
</svg>
