<svg xmlns="http://www.w3.org/2000/svg" width="1600" height="2490" viewBox="0 0 1600 2490" role="img" aria-labelledby="title desc">
  <title id="title">TrustedRouter Combination Models</title>
  <desc id="desc">TrustedRouter branded infographic explaining combination models with a shipping-container analogy, model typology, Synth, advisor models, and stacked pyramid compositions.</desc>
  <defs>
    <marker id="arrow" viewBox="0 0 10 10" refX="8.5" refY="5" markerWidth="9" markerHeight="9" orient="auto-start-reverse">
      <path d="M0,0 L10,5 L0,10 z" fill="#53647c"/>
    </marker>
    <filter id="shadow" x="-20%" y="-20%" width="140%" height="140%">
      <feDropShadow dx="0" dy="16" stdDeviation="20" flood-color="#07140f" flood-opacity="0.16"/>
    </filter>
    <linearGradient id="hero" x1="0" x2="1" y1="0" y2="1">
      <stop offset="0" stop-color="#06100d"/>
      <stop offset="0.52" stop-color="#08261b"/>
      <stop offset="1" stop-color="#0f6e56"/>
    </linearGradient>
    <linearGradient id="water" x1="0" x2="1" y1="0" y2="0">
      <stop offset="0" stop-color="#102a38" stop-opacity=".1"/>
      <stop offset="1" stop-color="#80d9c4" stop-opacity=".28"/>
    </linearGradient>
    <style>
      .bg { fill: #f4f7fb; }
      .hero { fill: url(#hero); }
      .card { fill: #ffffff; stroke: rgba(15, 23, 42, .08); stroke-width: 1.4; filter: url(#shadow); }
      .panel { fill: #ffffff; stroke: #d7e0eb; stroke-width: 1.4; }
      .ink { fill: #0f172a; }
      .muted { fill: #64748b; }
      .faint { fill: #94a3b8; }
      .white { fill: #ffffff; }
      .green { fill: #0f6e56; }
      .green2 { fill: #1d9e75; }
      .blue { fill: #2f6fb3; }
      .purple { fill: #534ab7; }
      .orange { fill: #c98a1e; }
      .red { fill: #b94848; }
      .pale-green { fill: #dcfce7; }
      .pale-blue { fill: #dbeafe; }
      .pale-purple { fill: #ede9fe; }
      .pale-orange { fill: #fef3c7; }
      .line { fill: none; stroke: #53647c; stroke-width: 2.5; marker-end: url(#arrow); }
      .line-green { fill: none; stroke: #1d9e75; stroke-width: 3; marker-end: url(#arrow); }
      .line-blue { fill: none; stroke: #2f6fb3; stroke-width: 3; marker-end: url(#arrow); }
      .line-purple { fill: none; stroke: #534ab7; stroke-width: 3; marker-end: url(#arrow); }
      .line-optional { fill: none; stroke: #534ab7; stroke-width: 2.4; stroke-dasharray: 8 7; marker-end: url(#arrow); }
      .h1 { font: 900 86px Inter, Arial, sans-serif; letter-spacing: 0; }
      .h2 { font: 850 44px Inter, Arial, sans-serif; letter-spacing: 0; }
      .h3 { font: 850 30px Inter, Arial, sans-serif; letter-spacing: 0; }
      .body { font: 520 25px Inter, Arial, sans-serif; letter-spacing: 0; }
      .small { font: 530 19px Inter, Arial, sans-serif; letter-spacing: 0; }
      .tiny { font: 650 15px Inter, Arial, sans-serif; letter-spacing: .1px; }
      .badge { font: 850 15px Inter, Arial, sans-serif; letter-spacing: .9px; }
      .code { font: 760 19px ui-monospace, SFMono-Regular, Menlo, Monaco, Consolas, monospace; letter-spacing: 0; }
      .code-sm { font: 760 15px ui-monospace, SFMono-Regular, Menlo, Monaco, Consolas, monospace; letter-spacing: 0; }
    </style>
  </defs>

  <rect class="bg" width="1600" height="2490"/>

  <!-- Hero -->
  <rect class="hero" width="1600" height="610"/>
  <path d="M0 476 C230 430 360 520 590 482 C820 444 985 420 1220 470 C1395 508 1500 488 1600 448 L1600 610 L0 610 Z" fill="url(#water)"/>
  <g transform="translate(76 58)">
    <rect width="68" height="68" rx="10" class="green2"/>
    <text x="34" y="44" text-anchor="middle" class="white" style="font:900 28px Inter,Arial,sans-serif">TR</text>
    <text x="90" y="30" class="badge" fill="#5ee7b7">TRUSTEDROUTER</text>
    <text x="90" y="64" class="small" fill="#c9f7e5">Combo models</text>
  </g>
  <text x="76" y="226" class="h1 white">The containerization</text>
  <text x="76" y="322" class="h1 white">of AI models.</text>
  <text x="80" y="392" class="body" fill="#d7fbe9">Token API standard outside. Model orchestration inside.</text>

  <g transform="translate(970 90)">
    <rect x="0" y="0" width="430" height="124" rx="10" fill="#123b30"/>
    <rect x="18" y="20" width="394" height="84" rx="4" fill="#155844"/>
    <path d="M60 20 V104 M106 20 V104 M152 20 V104 M198 20 V104 M244 20 V104 M290 20 V104 M336 20 V104 M382 20 V104" stroke="#42d39f" stroke-width="2" opacity=".6"/>
    <text x="215" y="72" text-anchor="middle" class="code white">trustedrouter/zeus</text>
  </g>
  <g transform="translate(896 230)">
    <rect x="0" y="0" width="430" height="124" rx="10" fill="#172554"/>
    <rect x="18" y="20" width="394" height="84" rx="4" fill="#1e3a8a"/>
    <path d="M60 20 V104 M106 20 V104 M152 20 V104 M198 20 V104 M244 20 V104 M290 20 V104 M336 20 V104 M382 20 V104" stroke="#60a5fa" stroke-width="2" opacity=".62"/>
    <text x="215" y="72" text-anchor="middle" class="code white">trustedrouter/socrates</text>
  </g>
  <g transform="translate(1034 370)">
    <rect x="0" y="0" width="430" height="124" rx="10" fill="#2e1065"/>
    <rect x="18" y="20" width="394" height="84" rx="4" fill="#4c1d95"/>
    <path d="M60 20 V104 M106 20 V104 M152 20 V104 M198 20 V104 M244 20 V104 M290 20 V104 M336 20 V104 M382 20 V104" stroke="#a78bfa" stroke-width="2" opacity=".62"/>
    <text x="215" y="72" text-anchor="middle" class="code white">trustedrouter/plato</text>
  </g>

  <!-- Typology cutaway -->
  <g transform="translate(76 680)">
    <rect class="card" width="1448" height="430" rx="14"/>
    <text x="42" y="64" class="h2 ink">Containerization made shipping composable.</text>
    <text x="42" y="112" class="body muted">Before containers, every load was bespoke.</text>
    <text x="42" y="146" class="body muted">After containers, ships, ports, trucks, and cranes spoke one shape.</text>
    <text x="42" y="198" class="body green">TrustedRouter does that for model orchestration.</text>

    <g transform="translate(76 246)">
      <circle cx="54" cy="54" r="54" fill="#e2e8f0" stroke="#cbd5e1" stroke-width="2"/>
      <path d="M32 40 H76 Q86 40 86 50 V70 Q86 80 76 80 H52 L36 94 V80 H32 Q22 80 22 70 V50 Q22 40 32 40 Z" fill="#64748b"/>
      <text x="54" y="138" text-anchor="middle" class="tiny muted">request port</text>
    </g>

    <path class="line" d="M220 300 L360 300"/>

    <g transform="translate(360 218)">
      <rect x="0" y="0" width="570" height="164" rx="10" fill="#123b30"/>
      <rect x="22" y="22" width="526" height="120" rx="5" fill="#155844"/>
      <path d="M72 22 V142 M126 22 V142 M180 22 V142 M234 22 V142 M288 22 V142 M342 22 V142 M396 22 V142 M450 22 V142 M504 22 V142" stroke="#42d39f" stroke-width="2" opacity=".54"/>
      <text x="286" y="38" text-anchor="middle" class="code-sm white">model ID container</text>

      <polygon points="94,78 124,58 154,78 154,116 124,136 94,116" fill="#dbeafe" stroke="#93c5fd" stroke-width="2"/>
      <text x="124" y="101" text-anchor="middle" class="tiny blue">worker</text>

      <rect x="248" y="64" width="64" height="64" transform="rotate(45 280 96)" fill="#ede9fe" stroke="#c4b5fd" stroke-width="2"/>
      <text x="280" y="102" text-anchor="middle" class="tiny purple">advisor</text>

      <circle cx="434" cy="96" r="38" fill="#dcfce7" stroke="#86efac" stroke-width="2"/>
      <circle cx="410" cy="86" r="7" fill="#0f6e56"/>
      <circle cx="434" cy="110" r="7" fill="#0f6e56"/>
      <circle cx="458" cy="86" r="7" fill="#0f6e56"/>
      <path d="M410 86 L434 110 L458 86" fill="none" stroke="#0f6e56" stroke-width="2"/>
      <text x="434" y="153" text-anchor="middle" class="tiny white">Synth</text>
    </g>

    <path class="line" d="M930 300 L1076 300"/>

    <g transform="translate(1076 238)">
      <path d="M0 0 H130 L170 40 V124 H0 Z" fill="#ffffff" stroke="#cbd5e1" stroke-width="2"/>
      <path d="M130 0 V40 H170" fill="#e2e8f0" stroke="#cbd5e1" stroke-width="2"/>
      <text x="85" y="70" text-anchor="middle" class="code-sm ink">answer</text>
      <text x="85" y="96" text-anchor="middle" class="tiny muted">normal API response</text>
    </g>
  </g>

  <!-- Primitive moves -->
  <g transform="translate(76 1185)">
    <text x="0" y="0" class="badge green">PRIMITIVE CONTAINERS</text>
    <text x="0" y="55" class="h2 ink">Small orchestration blocks snap into bigger models.</text>
  </g>

  <g transform="translate(76 1277)">
    <rect class="card" width="1448" height="380" rx="14"/>
    <text x="38" y="62" class="h3 ink">The standard pieces</text>
    <text x="38" y="94" class="small muted">Use one, or pack several together as a new model ID.</text>

    <g transform="translate(38 122)">
      <rect class="panel" width="320" height="104" rx="10"/>
      <rect x="20" y="18" width="82" height="28" rx="6" class="pale-green"/>
      <text x="61" y="37" text-anchor="middle" class="badge green">SYNTH</text>
      <text x="20" y="70" class="small ink">workers -> answer</text>
      <circle cx="280" cy="55" r="20" fill="#dcfce7" stroke="#86efac" stroke-width="2"/>
      <text x="280" y="61" text-anchor="middle" class="tiny green">hub</text>
    </g>

    <g transform="translate(384 122)">
      <rect class="panel" width="320" height="104" rx="10"/>
      <rect x="20" y="18" width="104" height="28" rx="6" class="pale-purple"/>
      <text x="72" y="37" text-anchor="middle" class="badge purple">ADVISOR</text>
      <text x="20" y="70" class="small ink">fast path + help</text>
      <rect x="256" y="34" width="44" height="44" transform="rotate(45 278 56)" fill="#ede9fe" stroke="#c4b5fd" stroke-width="2"/>
    </g>

    <g transform="translate(730 122)">
      <rect class="panel" width="320" height="104" rx="10"/>
      <rect x="20" y="18" width="90" height="28" rx="6" class="pale-blue"/>
      <text x="65" y="37" text-anchor="middle" class="badge blue">ROUTER</text>
      <text x="20" y="70" class="small ink">classify -> route</text>
      <path d="M252 34 L296 34 M252 56 L296 56 M252 78 L296 78" stroke="#2f6fb3" stroke-width="4" stroke-linecap="round"/>
    </g>

    <g transform="translate(1076 122)">
      <rect class="panel" width="320" height="104" rx="10"/>
      <rect x="20" y="18" width="104" height="28" rx="6" class="pale-orange"/>
      <text x="72" y="37" text-anchor="middle" class="badge orange">CASCADE</text>
      <text x="20" y="70" class="small ink">cheap -> upshift</text>
      <path d="M250 76 L268 56 L286 76 L304 54" fill="none" stroke="#c98a1e" stroke-width="4" stroke-linecap="round"/>
    </g>

    <g transform="translate(38 246)">
      <rect class="panel" width="320" height="104" rx="10"/>
      <rect x="20" y="18" width="104" height="28" rx="6" class="pale-green"/>
      <text x="72" y="37" text-anchor="middle" class="badge green">VERIFIER</text>
      <text x="20" y="70" class="small ink">pass or retry</text>
      <path d="M252 58 L268 74 L300 34" fill="none" stroke="#1d9e75" stroke-width="6" stroke-linecap="round" stroke-linejoin="round"/>
    </g>

    <g transform="translate(384 246)">
      <rect class="panel" width="320" height="104" rx="10"/>
      <rect x="20" y="18" width="72" height="28" rx="6" class="pale-blue"/>
      <text x="56" y="37" text-anchor="middle" class="badge blue">RACE</text>
      <text x="20" y="70" class="small ink">first good route wins</text>
      <path d="M252 34 L302 34 M252 56 L286 56 M252 78 L308 78" stroke="#2f6fb3" stroke-width="4" stroke-linecap="round"/>
    </g>

    <g transform="translate(730 246)">
      <rect class="panel" width="320" height="104" rx="10"/>
      <rect x="20" y="18" width="76" height="28" rx="6" class="pale-purple"/>
      <text x="58" y="37" text-anchor="middle" class="badge purple">CHAIN</text>
      <text x="20" y="70" class="small ink">step -> step -> step</text>
      <path d="M246 56 H300" stroke="#534ab7" stroke-width="4" stroke-linecap="round" marker-end="url(#arrow)"/>
    </g>

    <g transform="translate(1076 246)">
      <rect class="panel" width="320" height="104" rx="10"/>
      <rect x="20" y="18" width="126" height="28" rx="6" class="pale-green"/>
      <text x="83" y="37" text-anchor="middle" class="badge green">MAPREDUCE</text>
      <text x="20" y="70" class="small ink">split -> reduce</text>
      <path d="M248 54 C268 34 284 34 306 34 M248 54 H306 M248 54 C268 76 284 76 306 76" fill="none" stroke="#1d9e75" stroke-width="3" stroke-linecap="round"/>
    </g>
  </g>

  <!-- Builder workflow -->
  <g transform="translate(76 1683)">
    <text x="0" y="0" class="badge green">BUILD YOUR OWN CONTAINER</text>
    <text x="0" y="55" class="h2 ink">Build it. Eval it. Sell it. Let others call it privately.</text>
  </g>

  <g transform="translate(124 1793)">
    <rect class="card" x="-20" y="-20" width="1370" height="536" rx="14"/>

    <!-- Recipe card -->
    <g transform="translate(24 24)">
      <rect class="panel" width="250" height="354" rx="10"/>
      <text x="24" y="42" class="h3 ink">Recipe</text>
      <text x="24" y="78" class="small muted">Compose subgraphs</text>
      <rect x="24" y="108" width="202" height="38" rx="7" fill="#eff6ff" stroke="#bfdbfe"/>
      <text x="125" y="132" text-anchor="middle" class="code-sm blue">advisor Synth A</text>
      <rect x="24" y="160" width="202" height="38" rx="7" fill="#ede9fe" stroke="#c4b5fd"/>
      <text x="125" y="184" text-anchor="middle" class="code-sm purple">advisor Synth B</text>
      <rect x="24" y="212" width="202" height="38" rx="7" fill="#dcfce7" stroke="#86efac"/>
      <text x="125" y="236" text-anchor="middle" class="code-sm green">final Synth</text>
      <path d="M34 284 H64 M34 314 H64" stroke="#1d9e75" stroke-width="5" stroke-linecap="round"/>
      <text x="84" y="291" class="tiny muted">set price</text>
      <text x="84" y="321" class="tiny muted">publish</text>
    </g>

    <path class="line" d="M288 208 L350 208"/>

    <!-- Packaged model container -->
    <g transform="translate(350 24)">
      <rect width="610" height="402" rx="12" fill="#07140f"/>
      <rect x="20" y="22" width="570" height="358" rx="7" fill="#123b30"/>
      <path d="M72 22 V380 M124 22 V380 M176 22 V380 M228 22 V380 M280 22 V380 M332 22 V380 M384 22 V380 M436 22 V380 M488 22 V380 M540 22 V380" stroke="#42d39f" stroke-width="2" opacity=".42"/>
      <text x="305" y="48" text-anchor="middle" class="code white">trustedrouter/your-container</text>
      <text x="305" y="72" text-anchor="middle" class="tiny" fill="#d1fae5">one model ID, one normal API call</text>
      <rect x="206" y="86" width="198" height="26" rx="13" fill="#064e3b" stroke="#34d399" stroke-width="1.5"/>
      <text x="305" y="104" text-anchor="middle" class="tiny" fill="#d1fae5">E2E encrypted invocation</text>

      <circle cx="64" cy="218" r="25" fill="#e2e8f0" stroke="#cbd5e1" stroke-width="2"/>
      <path d="M51 211 H77 Q83 211 83 217 V227 Q83 233 77 233 H66 L58 242 V233 H51 Q45 233 45 227 V217 Q45 211 51 211 Z" fill="#64748b"/>
      <text x="64" y="260" text-anchor="middle" class="tiny" fill="#d1fae5">private call</text>

      <path class="line" d="M89 218 H122"/>
      <g transform="translate(122 190)">
        <rect width="58" height="56" rx="9" fill="#0b2d23" stroke="#34d399" stroke-width="1.5"/>
        <path d="M17 18 H42 M17 28 H34 M17 38 H47" stroke="#60a5fa" stroke-width="4" stroke-linecap="round"/>
        <text x="29" y="76" text-anchor="middle" class="tiny" fill="#d1fae5">route</text>
      </g>

      <path class="line-blue" d="M180 218 C206 218 206 142 232 142"/>
      <path class="line-blue" d="M180 218 C206 218 206 218 232 218"/>
      <path class="line-blue" d="M180 218 C206 218 206 294 232 294"/>

      <g transform="translate(232 118)">
        <polygon points="0,24 24,4 58,4 82,24 58,44 24,44" fill="#dbeafe" stroke="#93c5fd" stroke-width="2"/>
        <text x="41" y="29" text-anchor="middle" class="tiny blue">fast</text>
      </g>
      <g transform="translate(232 194)">
        <polygon points="0,24 24,4 58,4 82,24 58,44 24,44" fill="#dbeafe" stroke="#93c5fd" stroke-width="2"/>
        <text x="41" y="29" text-anchor="middle" class="tiny blue">cheap</text>
      </g>
      <g transform="translate(232 270)">
        <polygon points="0,24 24,4 58,4 82,24 58,44 24,44" fill="#dbeafe" stroke="#93c5fd" stroke-width="2"/>
        <text x="41" y="29" text-anchor="middle" class="tiny blue">special</text>
      </g>

      <rect x="322" y="118" width="36" height="36" transform="rotate(45 340 136)" fill="#ede9fe" stroke="#c4b5fd" stroke-width="1.7"/>
      <path class="line-optional" d="M314 142 C322 142 326 139 331 136"/>

      <rect x="322" y="270" width="36" height="36" transform="rotate(45 340 288)" fill="#ede9fe" stroke="#c4b5fd" stroke-width="1.7"/>
      <text x="340" y="320" text-anchor="middle" class="tiny" fill="#d8b4fe">optional advisors</text>
      <path class="line-optional" d="M314 294 C322 294 326 291 331 288"/>

      <path class="line-blue" d="M314 142 C338 142 356 170 378 190"/>
      <path class="line-blue" d="M314 218 H378"/>
      <path class="line-blue" d="M314 294 C338 294 356 266 378 246"/>

      <circle cx="404" cy="218" r="34" fill="#dcfce7" stroke="#86efac" stroke-width="2"/>
      <circle cx="390" cy="210" r="5" fill="#0f6e56"/>
      <circle cx="404" cy="229" r="5" fill="#0f6e56"/>
      <circle cx="418" cy="210" r="5" fill="#0f6e56"/>
      <path d="M390 210 L404 229 L418 210" fill="none" stroke="#0f6e56" stroke-width="2.5" stroke-linecap="round"/>
      <text x="404" y="266" text-anchor="middle" class="tiny" fill="#d1fae5">Synth</text>

      <path class="line-green" d="M438 218 L470 218"/>
      <rect x="466" y="193" width="50" height="50" transform="rotate(45 491 218)" fill="#ede9fe" stroke="#c4b5fd" stroke-width="2"/>
      <text x="491" y="223" text-anchor="middle" class="tiny purple">verify</text>
      <path d="M490 193 C472 160 410 158 372 182" fill="none" stroke="#a78bfa" stroke-width="2.2" stroke-dasharray="7 6" marker-end="url(#arrow)"/>
      <text x="442" y="167" text-anchor="middle" class="tiny" fill="#d8b4fe">retry / upshift</text>

      <path class="line-green" d="M526 218 L548 218"/>
      <path d="M548 180 H592 L600 188 V256 H548 Z" fill="#ffffff" stroke="#cbd5e1" stroke-width="2"/>
      <path d="M592 180 V188 H600" fill="#e2e8f0" stroke="#cbd5e1" stroke-width="2"/>
      <text x="574" y="222" text-anchor="middle" class="tiny ink">answer</text>

      <rect x="42" y="342" width="526" height="24" rx="6" fill="#0b2d23"/>
      <text x="305" y="359" text-anchor="middle" class="tiny" fill="#d1fae5">complex internals still ship as one normal model</text>
    </g>

    <path class="line" d="M980 208 L1038 208"/>

    <!-- Eval and market -->
    <g transform="translate(1038 24)">
      <rect class="panel" width="282" height="110" rx="10"/>
      <text x="30" y="48" class="h3 ink">Eval it</text>
      <path d="M216 36 H252 M216 64 H252" stroke="#1d9e75" stroke-width="5" stroke-linecap="round"/>
      <circle cx="190" cy="36" r="9" fill="#dcfce7" stroke="#1d9e75" stroke-width="3"/>
      <circle cx="190" cy="64" r="9" fill="#dcfce7" stroke="#1d9e75" stroke-width="3"/>
      <text x="30" y="86" class="tiny muted">Quality, cost, speed.</text>

      <path class="line" d="M141 110 L141 150"/>

      <rect class="panel" y="150" width="282" height="94" rx="10"/>
      <text x="30" y="192" class="h3 ink">Sell it</text>
      <text x="30" y="222" class="small muted">Offer one model ID.</text>

      <path class="line" d="M141 244 L141 282"/>

      <rect class="panel" y="282" width="282" height="72" rx="10"/>
      <path d="M46 326 V314 Q46 294 66 294 Q86 294 86 314 V326" fill="none" stroke="#0f6e56" stroke-width="6" stroke-linecap="round"/>
      <rect x="36" y="320" width="60" height="34" rx="7" fill="#dcfce7" stroke="#86efac" stroke-width="2"/>
      <text x="114" y="315" class="small ink">E2E calls</text>
      <text x="114" y="344" class="tiny muted">prompts stay private</text>
    </g>

    <g transform="translate(24 460)">
      <rect width="1296" height="40" rx="10" fill="#ecfdf5" stroke="#86efac"/>
      <path d="M32 27 V20 Q32 9 43 9 Q54 9 54 20 V27" fill="none" stroke="#0f6e56" stroke-width="4" stroke-linecap="round"/>
      <rect x="25" y="24" width="36" height="18" rx="4" fill="#bbf7d0" stroke="#34d399"/>
      <text x="82" y="26" class="small ink">Call published combo models over TrustedRouter E2E.</text>
      <path d="M690 9 V31" stroke="#86efac" stroke-width="2"/>
      <text x="720" y="26" class="small muted">No operator prompt visibility. No call monitoring.</text>
    </g>
  </g>

  <!-- Legend and CTA -->
  <g transform="translate(76 2360)">
    <rect class="hero" width="1448" height="90" rx="14"/>
    <text x="38" y="57" class="h3 white">Design a combo model. Run evals. Offer it for sale.</text>
    <text x="820" y="57" class="body" fill="#d7fbe9">Users call it over TrustedRouter E2E.</text>
  </g>

  <text x="76" y="2472" class="small muted">Synth launch: trustedrouter.com/blog/synth-iris-prometheus-zeus</text>
  <text x="1524" y="2472" text-anchor="end" class="small muted">trustedrouter.com</text>
</svg>
